# 123DMake
# Time(GMT): Thu Mar  5 16:57:36 2015

mtllib QuadrangularPiramidCornerMake.mtl
# panels count: 1
s 1
usemtl panelid_0
o panel0000
v 12.7 12.7 -12.7
v -12.7 -12.7 -12.7
v -12.7 12.7 -12.7
v 12.7 12.7 -12.7
v 12.7 -12.7 -12.7
v -12.7 -12.7 -12.7
v -12.7 -12.7 -12.7
v 12.7 -12.7 -12.7
v -12.7 12.7 12.7
v -12.7 12.7 -12.7
v -12.7 -12.7 -12.7
v -12.7 12.7 12.7
v 12.7 12.7 -12.7
v -12.7 12.7 -12.7
v -12.7 12.7 12.7
v 12.7 -12.7 -12.7
v 12.7 12.7 -12.7
v -12.7 12.7 12.7
vn 0 0 -1
vn 0 0 -1
vn 0 0 -1
vn 0 0 -1
vn 0 0 -1
vn 0 0 -1
vn 0 -0.7071068 0.7071068
vn 0 -0.7071068 0.7071068
vn 0 -0.7071068 0.7071068
vn -1 0 0
vn -1 0 0
vn -1 0 0
vn 0 1 0
vn 0 1 0
vn 0 1 0
vn 0.7071068 0 0.7071068
vn 0.7071068 0 0.7071068
vn 0.7071068 0 0.7071068
f 1//1 2//2 3//3
f 4//4 5//5 6//6
f 7//7 8//8 9//9
f 10//10 11//11 12//12
f 13//13 14//14 15//15
f 16//16 17//17 18//18
